<svg xmlns="http://www.w3.org/2000/svg" xmlns:xlink="http://www.w3.org/1999/xlink" width="500" height="1100" viewBox="0 0 744.09 1052.4">
  <defs>
    <linearGradient id="a">
      <stop style="stop-color:#5c89b7" offset="0"/>
      <stop style="stop-color:#6292c3;stop-opacity:0" offset="1"/>
    </linearGradient>
    <linearGradient id="b" y2="605.95" xlink:href="#a" gradientUnits="userSpaceOnUse" x2="-17.987" y1="553.43" x1="-131.43"/>
  </defs>
  <path style="fill:#69c" d="M331.91 414.14c74.798-128.97 139.4 130.42 22.5 87.9l-22.5-87.9zM207.88 378.79c-51.71-3.26-76.31 157.85 17.99 124.29l23.12-87.721c-14.432-25.291-28.567-35.78-41.117-36.571z" transform="matrix(2.6378 0 0 2.5392 -379.76 -914.43)"/>
  <path style="fill:#369" d="M337.62 427.57c51.361-90.399 95.72 91.419 15.45 61.612l-15.45-61.612zM241.39 428.99c-51.361-90.399-95.72 91.419-15.45 61.612l15.45-61.612z" transform="matrix(2.6378 0 0 2.5392 -379.76 -914.43)"/>
  <path style="color:#000;fill:#5c89b7" d="M258.68 555.42c39.736-42.763 99.722-37.225 133.98 12.37 34.262 49.595 29.825 124.47-9.91 167.23-39.737 42.763-99.723 37.225-133.98-12.37-32.117-46.489-30.496-115.89 3.736-159.96" transform="matrix(2.65758 0 0 2.35564 -463.37 -850.41)"/>
  <path style="stroke:#369;stroke-width:.75;fill:#6292c3" d="M356.75 543.35c46.37 18.075 56.497 52.547 45.638 89.969-17.826 35.701-43.264 38.602-50.097 17.481-8.246-30.129 7.311-25.637 13.453-39.772 7.35-16.912-22.182-49.178-22.182-49.178s6.157-21.241 13.188-18.5z" transform="matrix(2.6378 0 0 2.5392 -379.76 -914.43)"/>
  <path style="color:#000;fill:#369" d="M258.68 555.42c39.736-42.763 99.722-37.225 133.98 12.37 34.262 49.595 29.825 124.47-9.91 167.23-39.737 42.763-99.723 37.225-133.98-12.37-32.117-46.489-30.496-115.89 3.736-159.96" transform="matrix(1.67139 0 0 1.97293 -145.18 -648.22)"/>
  <path style="color:#000;fill:url(#b)" d="M-115.57 520.16c19.121-15.843 47.987-13.791 64.474 4.583s14.352 46.112-4.77 61.955-47.986 13.79-64.473-4.583c-15.454-17.223-14.674-42.933 1.798-59.262" transform="matrix(.1919 .60697 .52355 -.22247 276.287 666.908)"/>
  <path style="stroke:#369;stroke-width:.75;fill:#69c" d="M291.19 395.75c-16.994-.046-34.088 6.982-47.969 21.344l-4.75 5.375c-26.39 32.667-27.634 84.106-2.875 118.56 7.413 10.317 16.371 18.053 26.125 23.156 30.158 49.555 75.183 46.399 97.406 29.281 7.568-5.83 13.217-20.728 13.719-28.062 3.002-43.915-9.774-33.82-14.781-22.062-6.368 25.956-22.951 32.817-26.125 13.219a76.891 76.891 0 0 0 6.938-6.344c30.632-31.695 34.038-87.21 7.625-123.97-14.444-20.102-34.803-30.444-55.312-30.5z" transform="matrix(2.6378 0 0 2.5392 -379.76 -914.43)"/>
  <path style="opacity:.86058;color:#000;fill:#000" d="M262.37 461.85c2.113-3.643 5.302-3.171 7.123 1.054 1.822 4.225 1.586 10.604-.527 14.247-2.112 3.643-5.301 3.171-7.123-1.054-1.707-3.96-1.621-9.873.199-13.628" transform="matrix(2.6378 0 0 2.5392 -381.778 -929.068)"/>
  <path style="opacity:.86058;color:#000;fill:#000" d="M262.37 461.85c2.113-3.643 5.302-3.171 7.123 1.054 1.822 4.225 1.586 10.604-.527 14.247-2.112 3.643-5.301 3.171-7.123-1.054-1.707-3.96-1.621-9.873.199-13.628" transform="matrix(2.6378 0 0 2.5392 -243.866 -929.068)"/>
  <path style="color:#000;fill:#6191c2" d="M337.98 694.02c18.225-15.199 45.737-13.231 61.451 4.396 15.714 17.627 13.679 44.238-4.545 59.437-18.225 15.2-45.737 13.231-61.451-4.396-14.73-16.523-13.986-41.188 1.713-56.853" transform="matrix(2.9066 -1.5807 .94832 2.75656 -1217.552 -529.335)"/>
  <path style="color:#000;fill:#369" d="M337.98 694.02c18.225-15.199 45.737-13.231 61.451 4.396 15.714 17.627 13.679 44.238-4.545 59.437-18.225 15.2-45.737 13.231-61.451-4.396-14.73-16.523-13.986-41.188 1.713-56.853" transform="matrix(2.61796 -1.32605 .85415 2.31253 -1049.075 -285.75)"/>
  <path style="color:#000;fill:#6191c2" d="M337.98 694.02c18.225-15.199 45.737-13.231 61.451 4.396 15.714 17.627 13.679 44.238-4.545 59.437-18.225 15.2-45.737 13.231-61.451-4.396-14.73-16.523-13.986-41.188 1.713-56.853" transform="matrix(.06026 -3.2131 2.9488 .61248 -1948.934 1614.435)"/>
  <path style="color:#000;fill:#369" d="M337.98 694.02c18.225-15.199 45.737-13.231 61.451 4.396 15.714 17.627 13.679 44.238-4.545 59.437-18.225 15.2-45.737 13.231-61.451-4.396-14.73-16.523-13.986-41.188 1.713-56.853" transform="matrix(-2.166 -1.93957 -1.4533 2.0166 2068.092 144.823)"/>
  <path style="stroke:#369;stroke-width:.75;fill:#6292c3" d="M223.47 546.38c-46.37 18.075-56.497 52.547-45.638 89.969 17.826 35.701 43.264 38.602 50.097 17.481 8.246-30.129-7.311-25.637-13.453-39.772-7.35-16.912 22.182-49.178 22.182-49.178s-6.157-21.241-13.188-18.5z" transform="matrix(2.6378 0 0 2.5392 -379.76 -914.43)"/>
  <path style="color:#000;fill:url(#b)" d="M-115.57 520.16c19.121-15.843 47.987-13.791 64.474 4.583s14.352 46.112-4.77 61.955-47.986 13.79-64.473-4.583c-15.454-17.223-14.674-42.933 1.798-59.262" transform="matrix(-.23551 .65534 -.64254 -.2402 558.057 689.557)"/>
  <path style="color:#000;fill:url(#b)" d="M-115.57 520.16c19.121-15.843 47.987-13.791 64.474 4.583s14.352 46.112-4.77 61.955-47.986 13.79-64.473-4.583c-15.454-17.223-14.674-42.933 1.798-59.262" transform="matrix(-.19138 .52968 -.52213 -.19414 497.546 656.827)"/>
  <path style="color:#000;fill:#99abe3" d="M242.12 511.2c5.704-4.918 14.315-4.281 19.233 1.423 4.918 5.704 4.281 14.315-1.423 19.233-5.704 4.918-14.315 4.281-19.233-1.423a13.637 13.637 0 0 1 .537-18.397" transform="matrix(2.6378 0 0 2.5392 -385.09 -919.62)"/>
  <path style="color:#000;fill:#99abe3" d="M242.12 511.2c5.704-4.918 14.315-4.281 19.233 1.423 4.918 5.704 4.281 14.315-1.423 19.233-5.704 4.918-14.315 4.281-19.233-1.423a13.637 13.637 0 0 1 .537-18.397" transform="matrix(2.6378 0 0 2.5392 -158.715 -919.62)"/>
</svg>
